<?xml version="1.0" standalone="no"?>
<!DOCTYPE svg PUBLIC "-//W3C//DTD SVG 20010904//EN"
 "http://www.w3.org/TR/2001/REC-SVG-20010904/DTD/svg10.dtd">
<svg version="1.0" xmlns="http://www.w3.org/2000/svg"
 width="200.000000pt" height="200.000000pt" viewBox="0 0 200.000000 200.000000"
 preserveAspectRatio="xMidYMid meet">
<metadata>
Created by potrace 1.14, written by Peter Selinger 2001-2017
</metadata>
<g transform="translate(0.000000,200.000000) scale(0.100000,-0.100000)"
fill="#000000" stroke="none">
<path d="M1070 1630 l0 -140 240 0 240 0 0 140 0 140 -240 0 -240 0 0 -140z"/>
<path d="M470 1410 l0 -240 240 0 240 0 0 240 0 240 -240 0 -240 0 0 -240z"/>
<path d="M1070 1090 l0 -280 380 0 380 0 0 280 0 280 -380 0 -380 0 0 -280z"/>
<path d="M190 670 l0 -380 380 0 380 0 0 380 0 380 -380 0 -380 0 0 -380z"/>
<path d="M1070 450 l0 -240 240 0 240 0 0 240 0 240 -240 0 -240 0 0 -240z"/>
</g>
</svg>
